<?xml version="1.0" encoding="UTF-8"?>
<svg version="1.1" xmlns="http://www.w3.org/2000/svg" width="500" height="500">
<path d="M0 0 C165 0 330 0 500 0 C500 165 500 330 500 500 C335 500 170 500 0 500 C0 335 0 170 0 0 Z " fill="#FEFEFE" transform="translate(0,0)"/>
<path d="M0 0 C14.19 0 28.38 0 43 0 C47.49937098 11.24842744 47.49937098 11.24842744 49.17895508 15.97436523 C49.55647415 17.03344589 49.93399323 18.09252655 50.32295227 19.18370056 C50.71782333 20.29741531 51.1126944 21.41113007 51.51953125 22.55859375 C52.15202034 24.33424461 52.15202034 24.33424461 52.79728699 26.14576721 C53.91216372 29.27624801 55.02549687 32.40726763 56.13787842 35.53863525 C58.11678018 41.1086717 60.09875543 46.67761345 62.08203125 52.24609375 C62.50404816 53.43109467 62.92606506 54.61609558 63.36087036 55.83700562 C66.83827925 65.58377782 70.39054505 75.30142085 74 85 C75.81837196 82.27244206 76.80297801 80.09193333 77.90429688 77.0390625 C78.27228394 76.02529541 78.640271 75.01152832 79.01940918 73.96704102 C79.61308289 72.31273071 79.61308289 72.31273071 80.21875 70.625 C80.63612427 69.47249756 81.05349854 68.31999512 81.48352051 67.13256836 C82.82613338 63.42306839 84.16329191 59.71163136 85.5 56 C87.23796834 51.18691556 88.97814963 46.37463314 90.71875 41.5625 C91.14873291 40.37261475 91.57871582 39.18272949 92.02172852 37.95678711 C96.60997064 25.27778226 101.30260833 12.63902507 106 0 C120.19 0 134.38 0 149 0 C136.05957031 32.35107422 136.05957031 32.35107422 135.31423664 34.21439552 C134.03576927 37.41054693 132.75732639 40.60670812 131.47892761 43.80288696 C129.01152564 49.97167274 126.54392032 56.14037692 124.07553005 62.30876732 C122.63747775 65.90241337 121.19956295 69.49611443 119.76171875 73.08984375 C119.47721674 73.80091656 119.19271473 74.51198936 118.89959145 75.24460983 C115.38051422 84.04072148 111.86629924 92.83874868 108.35955811 101.63978577 C106.49019297 106.33113058 104.61913135 111.02179792 102.74798584 115.71243286 C101.87697486 117.89750574 101.00689251 120.08294903 100.13775635 122.26876831 C98.9469652 125.26342005 97.75313035 128.25684075 96.55859375 131.25 C96.20883987 132.13212662 95.859086 133.01425323 95.49873352 133.92311096 C93.113864 139.886136 93.113864 139.886136 92 141 C89.3337397 141.08855161 86.69352886 141.11524673 84.02734375 141.09765625 C83.22970108 141.0962413 82.43205841 141.09482635 81.61024475 141.09336853 C79.05262565 141.08775316 76.49509282 141.07519812 73.9375 141.0625 C72.20768355 141.05748698 70.47786574 141.05292373 68.74804688 141.04882812 C64.49866447 141.03777875 60.24934688 141.02050386 56 141 C48.6424043 123.34729048 41.4144468 105.64923744 34.34182739 87.88023376 C31.6471635 81.11029607 28.9399326 74.34540464 26.23242188 67.58059692 C25.3757197 65.43929888 24.51977908 63.29769794 23.6640625 61.15600586 C20.5763084 53.42948 17.4810457 45.70605434 14.37423706 37.98716736 C12.70103436 33.82894759 11.03047842 29.66966688 9.36016846 25.51028442 C8.53877905 23.46687685 7.71615314 21.42396587 6.89227295 19.38156128 C5.74017011 16.52514685 4.59229347 13.66706792 3.4453125 10.80859375 C2.92139923 9.51429443 2.92139923 9.51429443 2.38690186 8.19384766 C2.07118225 7.40469971 1.75546265 6.61555176 1.43017578 5.80249023 C1.15263458 5.11307846 0.87509338 4.42366669 0.58914185 3.71336365 C0 2 0 2 0 0 Z " fill="#010101" transform="translate(229,183)"/>
<path d="M0 0 C14.52 0 29.04 0 44 0 C50.1875 11.0625 50.1875 11.0625 52.24145508 14.73681641 C55.41470372 20.40709758 58.60225419 26.06811845 61.82421875 31.7109375 C62.42145752 32.75886475 63.01869629 33.80679199 63.6340332 34.88647461 C64.78135123 36.89713699 65.9321502 38.90581767 67.08666992 40.91235352 C67.60205322 41.81655029 68.11743652 42.72074707 68.6484375 43.65234375 C69.10395996 44.44632568 69.55948242 45.24030762 70.02880859 46.05834961 C71 48 71 48 71 50 C71.66 50 72.32 50 73 50 C73.26337158 49.29891113 73.52674316 48.59782227 73.7980957 47.87548828 C75.85984169 42.94287722 78.57287767 38.35554463 81.17504883 33.69140625 C82.17155036 31.90361473 83.16129056 30.112207 84.15039062 28.3203125 C88.18523768 21.04619014 92.44188028 13.95894788 97 7 C99.66536283 10.20378558 101.10150637 13.39020576 102.59375 17.26953125 C103.30337891 19.09774414 103.30337891 19.09774414 104.02734375 20.96289062 C104.51849412 22.24599236 105.00937752 23.52919632 105.5 24.8125 C106.46664276 27.31982948 107.436553 29.82587973 108.40625 32.33203125 C108.85484375 33.50459473 109.3034375 34.6771582 109.765625 35.88525391 C110.73121937 38.32177546 111.7662737 40.65598364 112.90625 43.01171875 C114.23704687 46.64764592 113.92687013 48.26104731 113 52 C111.3894043 55.15625 111.3894043 55.15625 109.32421875 58.5 C108.95778763 59.09876953 108.59135651 59.69753906 108.21382141 60.31445312 C107.04736721 62.21534374 105.86761516 64.10756743 104.6875 66 C103.90603722 67.27030234 103.12543006 68.54113144 102.34570312 69.8125 C96.28877175 79.65718891 96.28877175 79.65718891 93.78344727 82.63134766 C91.06734904 87.76163147 91.3967365 92.67702103 91.390625 98.3984375 C91.37408875 99.58853424 91.35755249 100.77863098 91.34051514 102.00479126 C91.29204468 105.7949134 91.27066511 109.58463428 91.25 113.375 C91.22183971 115.94923893 91.19191221 118.52345917 91.16015625 121.09765625 C91.0829684 127.39862196 91.04243555 133.69832142 91 140 C78.13 140 65.26 140 52 140 C52.10183594 136.39191406 52.20367187 132.78382813 52.30859375 129.06640625 C53.63503814 93.96450055 53.63503814 93.96450055 38.13916016 63.69189453 C34.29311575 58.8520765 31.28313752 53.49000818 28.125 48.1875 C26.80430773 46.03949443 25.48005229 43.89367582 24.15234375 41.75 C19.63217245 34.41517745 15.15613307 27.05380555 10.6875 19.6875 C10.32070129 19.0829599 9.95390259 18.4784198 9.57598877 17.8555603 C7.38171303 14.23841745 5.18838427 10.62071048 3 7 C2.15078979 5.64805542 2.15078979 5.64805542 1.28442383 4.26879883 C0 2 0 2 0 0 Z " fill="#020202" transform="translate(123,183)"/>
</svg>
